<svg width="54" height="54" viewBox="0 0 54 54" fill="none" xmlns="http://www.w3.org/2000/svg">
<circle cx="26.7463" cy="27.4536" r="25.8785" fill="white" stroke="#D9D9D9" stroke-width="1.19654"/>
<path d="M21.4501 31.8728C21.4502 31.7799 21.432 31.6879 21.3964 31.6021C21.3609 31.5163 21.3088 31.4383 21.243 31.3727L16.9503 27.0799C16.8844 27.0141 16.8322 26.936 16.7967 26.8499C16.7611 26.7639 16.7429 26.6717 16.7432 26.5786L16.7432 17.4588C16.7432 16.8347 16.9911 16.236 17.4325 15.7947C17.8739 15.3533 18.4725 15.1053 19.0967 15.1053H35.5711C36.1953 15.1053 36.7939 15.3533 37.2353 15.7947C37.6766 16.236 37.9246 16.8347 37.9246 17.4588L37.9246 26.581C37.9244 26.7682 37.8499 26.9476 37.7175 27.0799L33.4247 31.3727C33.359 31.4383 33.3069 31.5163 33.2713 31.6021C33.2358 31.6879 33.2175 31.7799 33.2176 31.8728L33.2176 36.2868C33.2176 36.911 32.9696 37.5096 32.5283 37.9509C32.0869 38.3923 31.4883 38.6403 30.8641 38.6403H23.8036C23.1795 38.6403 22.5808 38.3923 22.1395 37.9509C21.6981 37.5096 21.4501 36.911 21.4501 36.2868L21.4501 31.8728Z" stroke="black" stroke-width="1.79481"/>
<path d="M24.3945 26.2751L24.9829 24.9807M24.9829 24.9807L27.3364 19.803L29.6899 24.9807M24.9829 24.9807H29.6899M30.2783 26.2751L29.6899 24.9807" stroke="black" stroke-width="1.79481" stroke-linecap="round" stroke-linejoin="round"/>
</svg>
