<svg width="20" height="20" viewBox="0 0 20 20" fill="none" xmlns="http://www.w3.org/2000/svg">
<path d="M1.66699 15.8334V10.8334C1.66699 10.4584 1.74338 10.1181 1.89616 9.81252C2.04894 9.50696 2.25033 9.23613 2.50033 9.00002V6.66669C2.50033 5.97224 2.74338 5.38196 3.22949 4.89585C3.7156 4.40974 4.30588 4.16669 5.00033 4.16669H8.33366C8.6531 4.16669 8.95171 4.22585 9.22949 4.34419C9.50727 4.46252 9.76421 4.62558 10.0003 4.83335C10.2364 4.62502 10.4934 4.46196 10.7712 4.34419C11.0489 4.22641 11.3475 4.16724 11.667 4.16669H15.0003C15.6948 4.16669 16.285 4.40974 16.7712 4.89585C17.2573 5.38196 17.5003 5.97224 17.5003 6.66669V9.00002C17.7503 9.23613 17.9517 9.50696 18.1045 9.81252C18.2573 10.1181 18.3337 10.4584 18.3337 10.8334V15.8334H16.667V14.1667H3.33366V15.8334H1.66699ZM10.8337 8.33335H15.8337V6.66669C15.8337 6.43058 15.7537 6.2328 15.5937 6.07335C15.4337 5.91391 15.2359 5.83391 15.0003 5.83335H11.667C11.4309 5.83335 11.2331 5.91335 11.0737 6.07335C10.9142 6.23335 10.8342 6.43113 10.8337 6.66669V8.33335ZM4.16699 8.33335H9.16699V6.66669C9.16699 6.43058 9.08699 6.2328 8.92699 6.07335C8.76699 5.91391 8.56921 5.83391 8.33366 5.83335H5.00033C4.76421 5.83335 4.56644 5.91335 4.40699 6.07335C4.24755 6.23335 4.16755 6.43113 4.16699 6.66669V8.33335Z" fill="black" fill-opacity="0.7"/>
</svg>
