<svg width="53" height="53" viewBox="0 0 53 53" fill="none" xmlns="http://www.w3.org/2000/svg">
<circle cx="26.4768" cy="26.4768" r="25.8785" fill="white" stroke="#D9D9D9" stroke-width="1.19654"/>
<path d="M33.5482 22.5194C33.257 20.1299 33.5903 17.7037 34.5139 15.4907C34.6486 15.2135 34.9031 14.8902 34.6486 14.59C34.3941 14.2897 34.0423 14.4976 33.7428 14.59C32.9708 14.8209 32.2537 15.2138 31.6365 15.7437C31.0194 16.2737 30.5156 16.9293 30.157 17.6694C29.9549 18.0312 29.8126 18.393 29.2662 18.316C27.4217 18.0687 25.5563 18.0326 23.7041 18.2083C22.3151 18.2948 20.9588 18.6776 19.7215 19.3322C17.8138 20.4121 16.3178 22.1243 15.4769 24.19C15.4361 24.0884 15.406 23.9826 15.3871 23.8744C15.1775 22.8736 14.6385 22.3347 13.7926 22.4655H13.7776C13.5846 22.4905 13.3985 22.5558 13.2309 22.6573C13.0632 22.7588 12.9174 22.8944 12.8025 23.0558C12.6876 23.2172 12.6059 23.4011 12.5625 23.5961C12.519 23.7911 12.5147 23.9932 12.5499 24.19C12.5047 25.0419 12.6609 25.8924 13.0051 26.6686C13.3492 27.4449 13.8712 28.1239 14.5262 28.6474C14.7647 28.8154 14.9351 29.0673 15.0053 29.3557C15.4453 31.2606 16.4624 32.9724 17.9099 34.2443C18.1715 34.4645 18.3766 34.7475 18.5071 35.0683C18.6377 35.3891 18.6896 35.7379 18.6585 36.0842C18.4564 38.1782 19.2648 39.2406 21.4807 39.5485C21.651 39.5896 21.8235 39.6205 21.9972 39.6409C23.4944 39.9565 23.3298 39.9488 23.6067 38.5477C23.7939 37.6085 24.1607 37.3314 25.1039 37.4776C25.8677 37.5854 26.6393 37.6241 27.4096 37.5931C29.2587 37.5931 29.2662 37.5931 29.7677 39.3715C29.8576 39.6948 29.9249 40.0489 30.3666 39.9642C31.3914 39.8641 32.3984 39.6233 33.361 39.2483C33.7263 39.1211 34.0456 38.8831 34.2767 38.5656C34.5079 38.2482 34.6402 37.8662 34.6561 37.4699C34.4989 35.8301 35.0154 35.1604 35.9736 33.9363C36.1084 33.7746 36.3929 33.4898 36.5501 33.2588C36.8332 32.7963 37.2204 32.4107 37.6791 32.1347C38.1378 31.8586 38.6544 31.7002 39.1851 31.673C40.091 31.6268 40.4952 31.3419 40.4952 30.2718L40.4952 27.0385C40.5289 26.704 40.4331 26.3694 40.2285 26.1071C40.0239 25.8448 39.727 25.676 39.4022 25.6373C38.89 25.5323 38.4109 25.2989 38.0073 24.9578C37.6038 24.6167 37.2884 24.1784 37.0891 23.6819C36.2934 22.0777 35.0672 20.7418 33.5557 19.8326M34.7759 28.1932C34.4216 28.1714 34.0903 28.006 33.8545 27.7332C33.6187 27.4604 33.4978 27.1026 33.5182 26.7382C33.5376 26.3801 33.6942 26.0444 33.9538 25.8048C34.2134 25.5653 34.5548 25.4414 34.9031 25.4603C35.0847 25.4614 35.2641 25.5006 35.4305 25.5752C35.597 25.6499 35.7469 25.7586 35.8712 25.8947C35.9955 26.0308 36.0917 26.1914 36.1538 26.3669C36.2159 26.5423 36.2427 26.7289 36.2325 26.9153C36.2224 27.1018 36.1755 27.2841 36.0947 27.4513C36.0139 27.6186 35.9009 27.7672 35.7626 27.8881C35.6243 28.0091 35.4635 28.0998 35.29 28.1549C35.1165 28.21 34.934 28.2283 34.7534 28.2086L34.7759 28.1932Z" stroke="black" stroke-width="0.999124" stroke-linecap="round" stroke-linejoin="round"/>
<path d="M21.2159 18.6638C20.6121 18.2625 20.1423 17.6805 19.8698 16.9962C19.5974 16.312 19.5353 15.5583 19.692 14.8367C19.8486 14.115 20.2165 13.4601 20.7461 12.96C21.2757 12.4599 21.9416 12.1386 22.6541 12.0395C23.3666 11.9403 24.0915 12.068 24.7313 12.4054C25.3711 12.7428 25.895 13.2736 26.2325 13.9265C26.57 14.5794 26.705 15.3229 26.6191 16.057C26.5333 16.7911 26.2308 17.4806 25.7524 18.0326" stroke="black" stroke-width="0.999124" stroke-linecap="round" stroke-linejoin="round"/>
</svg>
