<svg width="40" height="40" viewBox="0 0 40 40" fill="none" xmlns="http://www.w3.org/2000/svg">
<path d="M33.332 6.66602L6.66536 6.66602C4.83203 6.66602 3.3487 8.16602 3.3487 9.99935L3.33203 29.9993C3.33203 31.8327 4.83203 33.3327 6.66536 33.3327L33.332 33.3327C35.1654 33.3327 36.6654 31.8327 36.6654 29.9993L36.6654 9.99935C36.6654 8.16602 35.1654 6.66602 33.332 6.66602ZM32.6654 13.7493L20.882 21.116C20.3487 21.4493 19.6487 21.4493 19.1154 21.116L7.33203 13.7493C7.16491 13.6555 7.01856 13.5288 6.90185 13.3768C6.78513 13.2248 6.70047 13.0506 6.65299 12.865C6.60551 12.6793 6.5962 12.4859 6.62563 12.2965C6.65505 12.1071 6.72259 11.9257 6.82417 11.7632C6.92574 11.6007 7.05924 11.4604 7.21657 11.351C7.37391 11.2416 7.55182 11.1652 7.73952 11.1265C7.92723 11.0878 8.12084 11.0876 8.30862 11.1259C8.49641 11.1642 8.67447 11.2402 8.83203 11.3493L19.9987 18.3327L31.1654 11.3493C31.3229 11.2402 31.501 11.1642 31.6888 11.1259C31.8766 11.0876 32.0702 11.0878 32.2579 11.1265C32.4456 11.1652 32.6235 11.2416 32.7808 11.351C32.9382 11.4604 33.0717 11.6007 33.1732 11.7632C33.2748 11.9257 33.3423 12.1071 33.3718 12.2965C33.4012 12.4859 33.3919 12.6793 33.3444 12.865C33.2969 13.0506 33.2123 13.2248 33.0956 13.3768C32.9788 13.5288 32.8325 13.6555 32.6654 13.7493Z" fill="black"/>
</svg>
