<svg width="40" height="40" viewBox="0 0 40 40" fill="none" xmlns="http://www.w3.org/2000/svg">
<path d="M31.25 40C33.5706 40 35.7962 39.0781 37.4372 37.4372C39.0781 35.7962 40 33.5706 40 31.25C40 28.9294 39.0781 26.7038 37.4372 25.0628C35.7962 23.4219 33.5706 22.5 31.25 22.5C28.9294 22.5 26.7038 23.4219 25.0628 25.0628C23.4219 26.7038 22.5 28.9294 22.5 31.25C22.5 33.5706 23.4219 35.7962 25.0628 37.4372C26.7038 39.0781 28.9294 40 31.25 40ZM32.135 25.365L35.885 29.115C36.1197 29.3497 36.2516 29.6681 36.2516 30C36.2516 30.3319 36.1197 30.6503 35.885 30.885C35.6503 31.1197 35.3319 31.2516 35 31.2516C34.6681 31.2516 34.3497 31.1197 34.115 30.885L32.5 29.2675V36.25C32.5 36.5815 32.3683 36.8995 32.1339 37.1339C31.8995 37.3683 31.5815 37.5 31.25 37.5C30.9185 37.5 30.6005 37.3683 30.3661 37.1339C30.1317 36.8995 30 36.5815 30 36.25V29.2675L28.385 30.885C28.1506 31.1197 27.8326 31.2517 27.5009 31.2519C27.1692 31.2522 26.851 31.1206 26.6162 30.8862C26.3815 30.6519 26.2495 30.3338 26.2493 30.0021C26.2491 29.6704 26.3806 29.3522 26.615 29.1175L30.365 25.3675C30.4811 25.2511 30.6191 25.1587 30.7709 25.0957C30.9228 25.0327 31.0856 25.0003 31.25 25.0003C31.4144 25.0003 31.5772 25.0327 31.7291 25.0957C31.8809 25.1587 32.0189 25.2511 32.135 25.3675V25.365Z" fill="black"/>
<path d="M21.7671 3.75003C21.2983 3.28135 20.6625 3.01807 19.9996 3.01807C19.3367 3.01807 18.7009 3.28135 18.2321 3.75003L1.61463 20.365C1.49841 20.4813 1.40622 20.6192 1.34332 20.7711C1.28042 20.9229 1.24805 21.0857 1.24805 21.25C1.24805 21.4144 1.28042 21.5771 1.34332 21.729C1.40622 21.8808 1.49841 22.0188 1.61463 22.135C1.84934 22.3697 2.16769 22.5016 2.49963 22.5016C2.66399 22.5016 2.82674 22.4692 2.97858 22.4063C3.13043 22.3434 3.26841 22.2513 3.38463 22.135L19.9996 5.51753L36.6146 22.135C36.8493 22.3697 37.1677 22.5016 37.4996 22.5016C37.8316 22.5016 38.1499 22.3697 38.3846 22.135C38.6193 21.9003 38.7512 21.582 38.7512 21.25C38.7512 20.9181 38.6193 20.5997 38.3846 20.365L32.4996 14.4825V6.25003C32.4996 5.91851 32.3679 5.60057 32.1335 5.36615C31.8991 5.13173 31.5811 5.00003 31.2496 5.00003H28.7496C28.4181 5.00003 28.1002 5.13173 27.8657 5.36615C27.6313 5.60057 27.4996 5.91851 27.4996 6.25003V9.48253L21.7671 3.75003Z" fill="black"/>
<path d="M20 8.23242L31.78 20.0124C29.7 19.9142 27.6335 20.3951 25.8107 21.4017C23.9878 22.4084 22.4802 23.9012 21.4555 25.7139C20.4308 27.5267 19.9293 29.5883 20.0069 31.6691C20.0845 33.75 20.7381 35.7685 21.895 37.4999H8.75C7.75544 37.4999 6.80161 37.1048 6.09835 36.4016C5.39509 35.6983 5 34.7445 5 33.7499V23.2324L20 8.23242Z" fill="black"/>
</svg>
