<svg width="10" height="15" viewBox="0 0 10 15" fill="none" xmlns="http://www.w3.org/2000/svg">
<g clip-path="url(#clip0_34_88)">
<path d="M9.56676 3.64347V4.73011C9.56676 4.82955 9.5348 4.91122 9.47088 4.97514C9.40696 5.03906 9.32528 5.07102 9.22585 5.07102H7.43608C7.27273 6.09375 6.81463 6.92472 6.06179 7.56392C5.30895 8.20312 4.32884 8.59375 3.12145 8.7358C4.30753 10 5.9375 11.9034 8.01136 14.446C8.1108 14.5597 8.125 14.6804 8.05398 14.8082C7.99716 14.9361 7.89418 15 7.74503 15H5.66761C5.55398 15 5.4652 14.9574 5.40128 14.8722C3.22798 12.2656 1.45952 10.2379 0.0958807 8.78906C0.0319602 8.72514 0 8.64702 0 8.55469V7.2017C0 7.10938 0.0337358 7.02947 0.101207 6.962C0.168679 6.89453 0.24858 6.8608 0.340909 6.8608H1.53409C2.47159 6.8608 3.22621 6.7081 3.79794 6.4027C4.36967 6.0973 4.73366 5.65341 4.88992 5.07102H0.340909C0.241477 5.07102 0.159801 5.03906 0.0958807 4.97514C0.0319602 4.91122 0 4.82955 0 4.73011V3.64347C0 3.54403 0.0319602 3.46236 0.0958807 3.39844C0.159801 3.33452 0.241477 3.30256 0.340909 3.30256H4.74077C4.33594 2.5 3.38423 2.09872 1.88565 2.09872H0.340909C0.24858 2.09872 0.168679 2.06499 0.101207 1.99751C0.0337358 1.93004 0 1.85014 0 1.75781V0.340909C0 0.241477 0.0319602 0.159801 0.0958807 0.0958807C0.159801 0.0319602 0.241477 0 0.340909 0H9.20455C9.30398 0 9.38565 0.0319602 9.44957 0.0958807C9.5135 0.159801 9.54546 0.241477 9.54546 0.340909V1.42756C9.54546 1.52699 9.5135 1.60866 9.44957 1.67259C9.38565 1.73651 9.30398 1.76847 9.20455 1.76847H6.7223C7.05611 2.2017 7.28338 2.71307 7.40412 3.30256H9.22585C9.32528 3.30256 9.40696 3.33452 9.47088 3.39844C9.5348 3.46236 9.56676 3.54403 9.56676 3.64347Z" fill="black"/>
</g>
<defs>
<clipPath id="clip0_34_88">
<rect width="9.88636" height="15" fill="white"/>
</clipPath>
</defs>
</svg>
