<svg width="40" height="40" viewBox="0 0 40 40" fill="none" xmlns="http://www.w3.org/2000/svg">
<path d="M19.9987 19.1673C18.8936 19.1673 17.8338 18.7283 17.0524 17.9469C16.271 17.1655 15.832 16.1057 15.832 15.0007C15.832 13.8956 16.271 12.8358 17.0524 12.0544C17.8338 11.273 18.8936 10.834 19.9987 10.834C21.1038 10.834 22.1636 11.273 22.945 12.0544C23.7264 12.8358 24.1654 13.8956 24.1654 15.0007C24.1654 15.5478 24.0576 16.0896 23.8482 16.5952C23.6388 17.1007 23.3319 17.56 22.945 17.9469C22.5581 18.3338 22.0987 18.6408 21.5932 18.8502C21.0877 19.0595 20.5459 19.1673 19.9987 19.1673ZM19.9987 3.33398C16.9045 3.33398 13.937 4.56315 11.7491 6.75107C9.56119 8.939 8.33203 11.9065 8.33203 15.0007C8.33203 23.7507 19.9987 36.6673 19.9987 36.6673C19.9987 36.6673 31.6654 23.7507 31.6654 15.0007C31.6654 11.9065 30.4362 8.939 28.2483 6.75107C26.0604 4.56315 23.0929 3.33398 19.9987 3.33398Z" fill="black"/>
</svg>
