<svg width="53" height="54" viewBox="0 0 53 54" fill="none" xmlns="http://www.w3.org/2000/svg">
<circle cx="26.468" cy="27.4531" r="25.9772" fill="white" stroke="#D9D9D9" stroke-width="0.999124"/>
<path fill-rule="evenodd" clip-rule="evenodd" d="M21.4707 24.5154C21.4707 23.033 22.0596 21.6113 23.1078 20.563C24.1561 19.5148 25.5778 18.9259 27.0602 18.9259C28.5427 18.9259 29.9644 19.5148 31.0126 20.563C32.0609 21.6113 32.6498 23.033 32.6498 24.5154C32.6498 25.9979 32.0609 27.4196 31.0126 28.4678C29.9644 29.5161 28.5427 30.105 27.0602 30.105C25.5778 30.105 24.1561 29.5161 23.1078 28.4678C22.0596 27.4196 21.4707 25.9979 21.4707 24.5154ZM27.0602 20.691C26.0459 20.691 25.0732 21.094 24.356 21.8112C23.6388 22.5284 23.2358 23.5011 23.2358 24.5154C23.2358 25.5297 23.6388 26.5025 24.356 27.2197C25.0732 27.9369 26.0459 28.3399 27.0602 28.3399C28.0745 28.3399 29.0473 27.9369 29.7645 27.2197C30.4817 26.5025 30.8847 25.5297 30.8847 24.5154C30.8847 23.5011 30.4817 22.5284 29.7645 21.8112C29.0473 21.094 28.0745 20.691 27.0602 20.691Z" fill="black"/>
<path fill-rule="evenodd" clip-rule="evenodd" d="M17.0865 23.164C17.2881 20.7246 18.3995 18.4501 20.2 16.792C22.0005 15.1338 24.3586 14.2131 26.8064 14.2125H27.3147C29.7625 14.2131 32.1206 15.1338 33.9211 16.792C35.7216 18.4501 36.833 20.7246 37.0347 23.164C37.259 25.8815 36.4194 28.58 34.6929 30.6905L29.0528 37.5874C28.8114 37.8826 28.5075 38.1204 28.1629 38.2837C27.8184 38.4471 27.4419 38.5318 27.0606 38.5318C26.6793 38.5318 26.3027 38.4471 25.9582 38.2837C25.6137 38.1204 25.3097 37.8826 25.0683 37.5874L19.4282 30.6905C17.7017 28.58 16.8621 25.8815 17.0865 23.164ZM26.8064 15.9776C24.8019 15.9785 22.871 16.7327 21.3967 18.0907C19.9223 19.4486 19.0122 21.3111 18.8469 23.3088C18.6601 25.5704 19.3588 27.8161 20.7956 29.5726L26.4357 36.4707C26.5115 36.5635 26.607 36.6382 26.7153 36.6896C26.8236 36.7409 26.9419 36.7676 27.0617 36.7676C27.1816 36.7676 27.2999 36.7409 27.4082 36.6896C27.5164 36.6382 27.6119 36.5635 27.6878 36.4707L33.3279 29.5726C34.7639 27.8157 35.4617 25.57 35.2742 23.3088C35.1089 21.3109 34.1986 19.4483 32.724 18.0903C31.2494 16.7323 29.3182 15.9782 27.3136 15.9776H26.8064Z" fill="black"/>
</svg>
