<svg width="40" height="40" viewBox="0 0 40 40" fill="none" xmlns="http://www.w3.org/2000/svg">
<path fill-rule="evenodd" clip-rule="evenodd" d="M27.585 36.8884C25.185 36.8001 18.3834 35.8601 11.26 28.7384C4.13837 21.6151 3.20004 14.8151 3.11004 12.4134C2.97671 8.75345 5.78004 5.19845 9.01837 3.81012C9.40833 3.64173 9.83537 3.57762 10.2576 3.62407C10.6798 3.67053 11.0827 3.82596 11.4267 4.07511C14.0934 6.01845 15.9334 8.95845 17.5134 11.2701C17.861 11.778 18.0097 12.396 17.931 13.0064C17.8523 13.6169 17.5518 14.177 17.0867 14.5801L13.835 16.9951C13.6779 17.1086 13.5674 17.2752 13.5238 17.464C13.4803 17.6528 13.5068 17.851 13.5984 18.0218C14.335 19.3601 15.645 21.3534 17.145 22.8534C18.645 24.3534 20.7334 25.7501 22.165 26.5701C22.3445 26.6709 22.5558 26.699 22.7555 26.6488C22.9551 26.5986 23.1279 26.4738 23.2384 26.3001L25.355 23.0784C25.7442 22.5615 26.3182 22.2152 26.957 22.1121C27.5958 22.0089 28.2496 22.157 28.7817 22.5251C31.1267 24.1484 33.8634 25.9568 35.8667 28.5218C36.1361 28.8683 36.3074 29.2808 36.3629 29.7162C36.4183 30.1516 36.3557 30.5938 36.1817 30.9968C34.7867 34.2518 31.2567 37.0234 27.585 36.8884Z" fill="black"/>
</svg>
