<svg width="60" height="60" viewBox="0 0 60 60" fill="none" xmlns="http://www.w3.org/2000/svg">
<rect x="-0.5" y="0.5" width="59" height="59" rx="3.5" transform="matrix(-1 0 0 1 59 0)" fill="#D45E05"/>
<rect x="-0.5" y="0.5" width="59" height="59" rx="3.5" transform="matrix(-1 0 0 1 59 0)" stroke="white"/>
<path d="M13.2929 30.7071C12.9024 30.3166 12.9024 29.6834 13.2929 29.2929L19.6569 22.9289C20.0474 22.5384 20.6805 22.5384 21.0711 22.9289C21.4616 23.3195 21.4616 23.9526 21.0711 24.3431L15.4142 30L21.0711 35.6569C21.4616 36.0474 21.4616 36.6805 21.0711 37.0711C20.6805 37.4616 20.0474 37.4616 19.6569 37.0711L13.2929 30.7071ZM45 31H14V29H45V31Z" fill="white"/>
</svg>
