<svg width="20" height="20" viewBox="0 0 20 20" fill="none" xmlns="http://www.w3.org/2000/svg">
<path d="M10.0003 9.58335C9.44779 9.58335 8.91789 9.36386 8.52719 8.97316C8.13649 8.58246 7.91699 8.05255 7.91699 7.50002C7.91699 6.94749 8.13649 6.41758 8.52719 6.02688C8.91789 5.63618 9.44779 5.41669 10.0003 5.41669C10.5529 5.41669 11.0828 5.63618 11.4735 6.02688C11.8642 6.41758 12.0837 6.94749 12.0837 7.50002C12.0837 7.77361 12.0298 8.04452 11.9251 8.29728C11.8204 8.55004 11.6669 8.7797 11.4735 8.97316C11.28 9.16661 11.0503 9.32007 10.7976 9.42477C10.5448 9.52947 10.2739 9.58335 10.0003 9.58335ZM10.0003 1.66669C8.45323 1.66669 6.9695 2.28127 5.87554 3.37523C4.78157 4.46919 4.16699 5.95292 4.16699 7.50002C4.16699 11.875 10.0003 18.3334 10.0003 18.3334C10.0003 18.3334 15.8337 11.875 15.8337 7.50002C15.8337 5.95292 15.2191 4.46919 14.1251 3.37523C13.0312 2.28127 11.5474 1.66669 10.0003 1.66669Z" fill="black" fill-opacity="0.7"/>
</svg>
