<svg width="40" height="40" viewBox="0 0 40 40" fill="none" xmlns="http://www.w3.org/2000/svg">
<path d="M11.6666 33.3333C10.7499 33.3333 9.96545 33.0072 9.31323 32.355C8.661 31.7028 8.33434 30.9178 8.33323 30V18.0833L4.99989 20.625C4.611 20.9028 4.19434 21.0211 3.74989 20.98C3.30545 20.9389 2.94434 20.7233 2.66656 20.3333C2.38878 19.9433 2.27767 19.5267 2.33322 19.0833C2.38878 18.64 2.611 18.2789 2.99989 18L17.9582 6.54167C18.2638 6.31944 18.5904 6.15278 18.9382 6.04167C19.286 5.93056 19.6399 5.875 19.9999 5.875C20.3599 5.875 20.7143 5.93056 21.0632 6.04167C21.4121 6.15278 21.7382 6.31944 22.0416 6.54167L26.6666 10.0833V9.16667C26.6666 8.47222 26.9099 7.88222 27.3966 7.39667C27.8832 6.91111 28.4732 6.66778 29.1666 6.66667C29.8599 6.66556 30.4504 6.90889 30.9382 7.39667C31.426 7.88444 31.6688 8.47444 31.6666 9.16667V13.9167L36.9999 18C37.361 18.2778 37.5766 18.6389 37.6466 19.0833C37.7166 19.5278 37.6121 19.9444 37.3332 20.3333C37.0543 20.7222 36.6932 20.9378 36.2499 20.98C35.8066 21.0222 35.3899 20.9039 34.9999 20.625L31.6666 18.0833V30C31.6666 30.9167 31.3404 31.7017 30.6882 32.355C30.036 33.0083 29.251 33.3344 28.3332 33.3333H26.6666C25.7499 33.3333 24.9654 33.0072 24.3132 32.355C23.661 31.7028 23.3343 30.9178 23.3332 30V26.6667C23.3332 25.75 23.0071 24.9656 22.3549 24.3133C21.7027 23.6611 20.9177 23.3344 19.9999 23.3333C19.0821 23.3322 18.2977 23.6589 17.6466 24.3133C16.9954 24.9678 16.6688 25.7522 16.6666 26.6667V30C16.6666 30.9167 16.3404 31.7017 15.6882 32.355C15.036 33.0083 14.251 33.3344 13.3332 33.3333H11.6666ZM16.6666 16.7083H23.3332C23.3332 15.8194 22.9999 15.09 22.3332 14.52C21.6666 13.95 20.8888 13.6656 19.9999 13.6667C19.111 13.6678 18.3332 13.9528 17.6666 14.5217C16.9999 15.0906 16.6666 15.8194 16.6666 16.7083Z" fill="black"/>
</svg>
