<svg width="45" height="40" viewBox="0 0 45 40" fill="none" xmlns="http://www.w3.org/2000/svg">
<path d="M44.6585 30.6093C44.6585 33.2467 43.84 35.384 42.203 37.0211C40.5659 38.6581 38.4286 39.4766 35.7912 39.4766C33.2446 39.4766 31.1074 38.5672 29.3794 36.7482C27.6514 34.8383 26.7874 32.1554 26.7874 28.6994C26.7874 25.2434 27.9242 21.0598 30.1979 16.1486C32.5625 11.2375 36.064 6.14442 40.7023 0.869467L43.84 3.59789C40.7478 7.23578 38.6105 10.5554 37.4282 13.5566C36.2459 16.4669 35.5638 19.1499 35.3819 21.6055H35.7912C38.4286 21.6055 40.5659 22.424 42.203 24.061C43.84 25.6981 44.6585 27.8808 44.6585 30.6093ZM18.3293 30.6093C18.3293 33.2467 17.5107 35.384 15.8737 37.0211C14.2366 38.6581 12.0994 39.4766 9.4619 39.4766C6.91537 39.4766 4.77811 38.5672 3.05011 36.7482C1.32211 34.8383 0.458106 32.1554 0.458106 28.6994C0.458106 25.2434 1.59495 21.0598 3.86863 16.1486C6.23326 11.2375 9.73474 6.14442 14.3731 0.869467L17.5107 3.59789C14.4185 7.23578 12.2813 10.5554 11.0989 13.5566C9.91663 16.4669 9.23453 19.1499 9.05263 21.6055H9.4619C12.0994 21.6055 14.2366 22.424 15.8737 24.061C17.5107 25.6981 18.3293 27.8808 18.3293 30.6093Z" fill="white"/>
</svg>
